<svg width="27" height="30" viewBox="0 0 27 30" xmlns="http://www.w3.org/2000/svg" fill="#121827" role="img"><path d="M7.58298 2.90948C7.69712 2.84358 7.84322 2.8826 7.9092 2.99669L10.0034 6.619L12.4032 5.23341L12.4589 5.20263C13.0395 4.89274 13.7409 4.90287 14.3134 5.23341L21.3934 9.32233C21.934 9.65896 22.2716 10.2435 22.2928 10.88L22.2938 19.056C22.2937 19.7384 21.9297 20.3692 21.3386 20.7104L20.5913 21.1418C20.4771 21.2078 20.331 21.1686 20.265 21.0544L19.6681 20.0204C19.6022 19.9062 19.6413 19.7604 19.7555 19.6944L20.5029 19.2628C20.5768 19.2202 20.6223 19.1413 20.6223 19.056V10.9439C20.6222 10.8586 20.5767 10.78 20.5029 10.7373L13.4777 6.68103C13.4039 6.63844 13.3127 6.63844 13.2389 6.68103L9.59957 8.78227C9.48539 8.84819 9.3393 8.80899 9.27334 8.69483L7.29966 5.27888C7.23371 5.16474 7.08784 5.12557 6.97366 5.19144L2.20874 7.94233C1.87628 8.13428 1.67148 8.4891 1.67148 8.87298V21.1269C1.67148 21.5108 1.87628 21.8656 2.20874 22.0576L12.821 28.1845C13.1535 28.3765 13.5631 28.3765 13.8956 28.1845L17.2145 26.2684C17.3287 26.2026 17.4746 26.2417 17.5405 26.3559L18.1374 27.3898C18.2034 27.504 18.1644 27.6501 18.0502 27.716L14.7313 29.6321C13.8817 30.1226 12.8349 30.1226 11.9853 29.6321L1.373 23.5052C0.523421 23.0147 4.47908e-05 22.1081 0 21.1271V8.87298C1.85169e-05 7.89197 0.523436 6.98547 1.373 6.49495L7.58298 2.90948Z"></path><path d="M11.9853 0.367985C12.8349 -0.122524 13.8817 -0.122722 14.7313 0.367752L25.3436 6.49472C26.1932 6.98524 26.7166 7.89193 26.7166 8.87298V21.1269C26.7166 22.108 26.1932 23.0146 25.3436 23.5052L19.9113 26.6415C19.7971 26.7074 19.651 26.6682 19.5851 26.5541L17.6114 23.1379C17.5454 23.0238 17.3993 22.9848 17.2851 23.0507L14.3134 24.7665C13.7409 25.097 13.0397 25.1071 12.4591 24.7973L12.4032 24.7662L5.37797 20.7104C4.78694 20.3692 4.42285 19.7384 4.42284 19.056V10.9439C4.42288 10.2615 4.78679 9.63068 5.37774 9.28945L6.90277 8.40917C7.01698 8.34324 7.16306 8.38241 7.229 8.49662L7.82596 9.53056C7.89179 9.64473 7.85263 9.79062 7.73851 9.85656L6.21348 10.7371C6.13968 10.7797 6.0941 10.8587 6.09408 10.9439L6.09432 19.056C6.09436 19.1412 6.13986 19.2202 6.21371 19.2628L13.2389 23.3189C13.3128 23.3615 13.4038 23.3615 13.4777 23.3189L17.8945 20.7687C18.0086 20.7028 18.1547 20.7419 18.2207 20.8559L20.3152 24.4783L24.5079 22.0576C24.8403 21.8656 25.0451 21.5108 25.0451 21.1269L25.0453 8.87275C25.0453 8.48896 24.8404 8.13427 24.5081 7.94233L13.8956 1.81537C13.5631 1.62345 13.1535 1.62346 12.821 1.81537L10.2798 3.28258C10.1656 3.34852 10.0195 3.30934 9.95355 3.19513L9.35659 2.16119C9.29069 2.04699 9.32984 1.90089 9.44404 1.83496L11.9853 0.367985Z"></path><path d="M12.4591 9.74859C13.0397 9.43877 13.7409 9.44888 14.3134 9.77937L17.4017 11.5625L17.4563 11.5954C17.997 11.9321 18.3345 12.5165 18.3557 13.1531L18.3566 13.6864C18.3568 13.8183 18.2498 13.9254 18.1179 13.9254H16.9242C16.7923 13.9254 16.6854 13.8185 16.6854 13.6866V13.217C16.6854 13.1317 16.6398 13.0528 16.566 13.0102L13.4777 11.227C13.4039 11.1844 13.3127 11.1844 13.2389 11.227L10.1506 13.0099C10.0768 13.0526 10.0313 13.1315 10.0312 13.2168V16.7829C10.0312 16.8682 10.0768 16.9471 10.1506 16.9897L13.2389 18.7727C13.3128 18.8153 13.4038 18.8153 13.4777 18.7727L16.566 16.9897C16.6398 16.9471 16.6854 16.8682 16.6854 16.7829V16.3132C16.6854 16.1814 16.7923 16.0745 16.9242 16.0745H18.1181C18.25 16.0745 18.3569 16.1814 18.3569 16.3132V16.7829C18.3569 17.4653 17.9928 18.0961 17.4017 18.4373L14.3134 20.2203C13.7224 20.5615 12.9942 20.5615 12.4032 20.2203L9.31485 18.4373C8.72383 18.0961 8.35972 17.4653 8.35972 16.7829V13.2168C8.35978 12.5344 8.72393 11.9038 9.31485 11.5625L12.4032 9.77961L12.4591 9.74859Z"></path></svg>